<?xml version="1.0" encoding="UTF-8"?>
<!DOCTYPE svg PUBLIC "-//W3C//DTD SVG 1.1//EN" "http://www.w3.org/Graphics/SVG/1.1/DTD/svg11.dtd">
<!-- Creator: CorelDRAW 2020 (64-Bit Evaluation Version) -->
<svg xmlns="http://www.w3.org/2000/svg" xml:space="preserve" width="297mm" height="100mm" version="1.1" style="shape-rendering:geometricPrecision; text-rendering:geometricPrecision; image-rendering:optimizeQuality; fill-rule:evenodd; clip-rule:evenodd"
viewBox="0 0 29700 21000"
 xmlns:xlink="http://www.w3.org/1999/xlink"
 xmlns:xodm="http://www.corel.com/coreldraw/odm/2003">
 <defs>
  <style type="text/css">
   <![CDATA[
    .fil2 {fill:#222E35}
    .fil3 {fill:#007CBF}
    .fil1 {fill:#222E35;fill-rule:nonzero}
    .fil0 {fill:#007CBF;fill-rule:nonzero}
   ]]>
  </style>
 </defs>
 <g id="Layer_x0020_1">
  <metadata id="CorelCorpID_0Corel-Layer"/>
  <g id="_1407727914528">
   <path class="fil0" d="M2845.56 11676.69c891.32,0 1583.67,194.97 2077.08,584.92 493.4,389.94 740.11,1054.46 740.11,1993.51 0,572.99 -129.99,1053.14 -389.95,1440.44 -259.97,387.28 -606.15,673.79 -1038.53,859.48 -432.4,185.69 -908.57,278.53 -1428.5,278.53l-1679.16 0 0 -5156.88 1718.95 0zm-254.66 4185.98c453.62,0 815.71,-43.76 1087.62,-131.3 271.89,-87.55 476.17,-248.04 614.11,-481.47 139.25,-233.44 208.22,-565.03 208.22,-994.78 0,-397.9 -62.33,-713.56 -187.01,-947.01 -124.68,-233.45 -309.03,-401.89 -551.75,-505.34 -244.06,-103.46 -551.78,-155.19 -923.16,-155.19l-614.09 0 0 3215.09 366.06 0zm6153.64 1082.32c-519.93,0 -947.01,-96.83 -1281.25,-290.48 -334.26,-193.64 -576.98,-456.26 -728.18,-787.85 -151.2,-331.59 -226.8,-709.61 -226.8,-1134.04l0 -3055.93 1098.22 0 0 2920.64c0,445.66 90.19,791.83 269.24,1038.54 180.39,246.7 493.42,370.05 940.39,370.05 425.76,0 725.53,-123.35 900.61,-370.05 173.75,-246.71 261.29,-566.36 261.29,-958.96l0 -3000.22 1098.22 0 0 3032.05c0,525.23 -100.81,953.66 -302.41,1285.25 -201.61,331.59 -476.15,572.97 -823.67,724.19 -347.5,151.2 -749.39,226.81 -1205.66,226.81zm7530.4 -175.09l0 63.67 -1262.69 0 -1295.85 -1878.13 -433.71 0 0 1878.13 -1098.23 0 0 -5156.88 1726.91 0c456.27,0 836.93,70.3 1142,210.89 305.06,140.6 531.87,331.59 680.42,572.98 148.55,241.4 222.82,515.96 222.82,823.68 0,360.76 -90.19,672.45 -270.58,935.07 -180.37,262.62 -445.64,457.6 -795.81,584.93l1384.72 1965.66zm-2992.25 -2665.98l496.05 0c324.96,0 575.64,-61.01 752.04,-183.04 176.4,-122.03 263.95,-323.63 263.95,-604.81 0,-244.06 -78.26,-427.08 -236.1,-549.11 -156.5,-122.03 -376.68,-183.04 -657.87,-183.04l-618.07 0 0 1520zm3805.96 2729.65l0 -5156.88 1098.23 0 0 5156.88 -1098.23 0zm6249.15 -5156.88l0 962.94 -1639.38 0 0 4193.94 -1098.22 0 0 -4193.94 -1647.34 0 0 -962.94 4384.94 0zm5158.86 0l0 63.66 -1909.95 2944.52 0 2148.7 -1098.23 0 0 -2116.86 -1862.22 -2976.36 0 -63.66 1273.32 0 1161.89 1989.53 1209.63 -1989.53 1225.56 0z"/>
   <path class="fil1" d="M1126.61 18602l0 -1025.48 465.08 0c93.57,0 164.63,9.3 213.25,27.67 48.61,18.39 87.44,50.86 116.53,97.41 29.06,46.55 43.47,98.11 43.47,154.44 0,72.8 -24.18,134.15 -72.3,184.04 -48.12,49.89 -122.38,81.4 -223.02,95.01 36.89,17.18 64.73,34.36 83.78,51.08 40.55,36.28 78.9,81.88 114.81,136.54l181.49 279.29 -173.44 0 -138.73 -213.41c-40.31,-61.83 -73.77,-108.84 -99.91,-141.55 -26.37,-32.71 -49.82,-55.37 -70.61,-68.51 -20.51,-12.89 -41.75,-21.97 -63.24,-27.21 -15.64,-3.1 -41.3,-4.77 -77.2,-4.77l-160.73 0 0 455.45 -139.23 0zm139.23 -572.9l298.01 0c63.52,0 112.86,-6.44 148.51,-19.33 35.67,-12.65 62.78,-33.18 81.11,-61.59 18.55,-28.16 27.85,-58.72 27.85,-91.91 0,-48.45 -17.84,-88.55 -53.76,-119.83 -35.89,-31.26 -92.57,-46.78 -170.01,-46.78l-331.71 0 0 339.44zm1448.55 572.9l0 -1025.48 757.72 0 0 120.3 -618.48 0 0 315.1 578.91 0 0 120.31 -578.91 0 0 349.46 643.41 0 0 120.31 -782.65 0zm1458.57 -329.42l130.45 -11.46c6.09,51.56 20.51,93.82 43.22,126.99 22.71,32.95 57.9,59.68 105.52,80.21 47.64,20.3 101.38,30.55 160.99,30.55 53.01,0 99.65,-7.63 140.21,-23.14 40.55,-15.53 70.59,-36.76 90.38,-63.75 19.78,-26.97 29.81,-56.34 29.81,-87.84 0,-31.98 -9.55,-59.92 -28.59,-84.03 -19.05,-23.87 -50.57,-43.91 -94.53,-60.39 -28.09,-10.49 -90.38,-27.21 -186.88,-49.89 -96.49,-22.68 -163.9,-43.92 -202.51,-63.97 -50.06,-25.78 -87.18,-57.76 -111.62,-95.71 -24.68,-37.97 -36.88,-80.69 -36.88,-127.72 0,-52.04 15.15,-100.49 45.19,-145.37 30.04,-45.11 73.76,-79.25 131.65,-102.64 57.66,-23.4 121.9,-35.1 192.49,-35.1 77.68,0 146.33,12.18 205.69,36.76 59.36,24.35 105.04,60.4 137.04,108.14 31.98,47.51 49.1,101.45 51.53,161.6l-133.37 10.03c-7.08,-64.68 -31.27,-113.62 -72.56,-146.56 -41.26,-33.19 -102.34,-49.66 -182.94,-49.66 -84.03,0 -145.35,15.04 -183.7,45.11 -38.35,30.09 -57.64,66.37 -57.64,108.87 0,36.76 13.66,67.07 40.79,90.94 26.88,23.63 96.47,48.22 209.32,73.03 112.87,25.08 190.31,46.79 232.32,65.42 60.82,27.45 106.02,62.06 135.08,104.32 29.06,42.01 43.48,90.46 43.48,145.36 0,54.67 -15.88,105.75 -47.87,153.97 -32.01,48.21 -77.68,85.7 -137.53,112.43 -59.84,26.74 -127.01,40.1 -202.01,40.1 -94.78,0 -174.17,-13.6 -238.17,-40.57 -64.25,-26.99 -114.31,-67.55 -150.72,-121.98 -36.65,-54.2 -55.69,-115.55 -57.64,-184.05zm1552.36 329.42l0 -1025.48 396.2 0c69.63,0 122.88,3.34 159.77,9.79 51.55,8.34 94.77,24.33 129.71,47.73 34.93,23.63 63.02,56.58 84.27,98.82 21.25,42.26 31.74,88.8 31.74,139.64 0,86.89 -28.32,160.65 -85.25,220.82 -56.66,60.38 -159.51,90.45 -308.01,90.45l-269.19 0 0 418.23 -139.24 0zm139.24 -538.53l271.15 0c89.89,0 153.39,-16.24 191.26,-48.93 37.61,-32.71 56.43,-78.53 56.43,-137.97 0,-42.74 -10.99,-79.5 -33.24,-110.05 -22.21,-30.56 -51.54,-50.84 -87.69,-60.63 -23.44,-5.96 -66.67,-9.07 -129.46,-9.07l-268.45 0 0 366.65zm1325.18 39.39c0,-169.95 46.92,-303.15 140.48,-399.35 93.55,-96.21 214.21,-144.19 362.24,-144.19 96.97,0 184.18,22.68 262.1,67.79 77.68,45.12 137.04,108.14 177.82,189.06 40.81,80.68 61.32,172.35 61.32,274.75 0,103.85 -21.49,196.94 -64.49,278.82 -42.98,82.12 -103.8,144.18 -182.47,186.19 -78.89,42.24 -163.9,63.25 -255,63.25 -98.93,0 -187.11,-23.39 -265.05,-69.93 -77.68,-46.55 -136.8,-110.06 -176.84,-190.73 -40.07,-80.44 -60.11,-165.66 -60.11,-255.66zm143.65 2.38c0,123.43 33.94,220.57 101.85,291.47 67.91,70.9 153.16,106.47 255.76,106.47 104.54,0 190.29,-35.81 257.94,-107.43 67.42,-71.61 101.15,-173.3 101.15,-305.07 0,-83.31 -14.44,-156.1 -43.24,-218.18 -28.84,-62.06 -71.09,-110.27 -126.54,-144.41 -55.7,-34.13 -117.98,-51.33 -187.11,-51.33 -98.19,0 -182.72,32.95 -253.55,98.84 -70.85,65.88 -106.26,175.68 -106.26,329.64zm1566.77 496.76l0 -1025.48 142.65 0 550.58 804.91 0 -804.91 133.38 0 0 1025.48 -142.65 0 -550.58 -804.93 0 804.93 -133.38 0zm1543.82 -329.42l130.45 -11.46c6.09,51.56 20.51,93.82 43.22,126.99 22.71,32.95 57.9,59.68 105.52,80.21 47.64,20.3 101.38,30.55 160.99,30.55 53.01,0 99.65,-7.63 140.21,-23.14 40.55,-15.53 70.59,-36.76 90.38,-63.75 19.8,-26.97 29.81,-56.34 29.81,-87.84 0,-31.98 -9.55,-59.92 -28.59,-84.03 -19.05,-23.87 -50.55,-43.91 -94.53,-60.39 -28.09,-10.49 -90.38,-27.21 -186.88,-49.89 -96.47,-22.68 -163.9,-43.92 -202.51,-63.97 -50.06,-25.78 -87.18,-57.76 -111.62,-95.71 -24.68,-37.97 -36.88,-80.69 -36.88,-127.72 0,-52.04 15.15,-100.49 45.19,-145.37 30.04,-45.11 73.76,-79.25 131.65,-102.64 57.66,-23.4 121.9,-35.1 192.49,-35.1 77.68,0 146.33,12.18 205.69,36.76 59.36,24.35 105.04,60.4 137.04,108.14 31.99,47.51 49.1,101.45 51.53,161.6l-133.37 10.03c-7.08,-64.68 -31.27,-113.62 -72.56,-146.56 -41.26,-33.19 -102.34,-49.66 -182.94,-49.66 -84.03,0 -145.35,15.04 -183.69,45.11 -38.36,30.09 -57.65,66.37 -57.65,108.87 0,36.76 13.66,67.07 40.79,90.94 26.88,23.63 96.47,48.22 209.32,73.03 112.87,25.08 190.31,46.79 232.32,65.42 60.82,27.45 106.02,62.06 135.08,104.32 29.06,42.01 43.48,90.46 43.48,145.36 0,54.67 -15.88,105.75 -47.87,153.97 -32,48.21 -77.68,85.7 -137.53,112.43 -59.84,26.74 -127.01,40.1 -202.01,40.1 -94.78,0 -174.17,-13.6 -238.17,-40.57 -64.25,-26.99 -114.31,-67.55 -150.72,-121.98 -36.63,-54.2 -55.68,-115.55 -57.64,-184.05zm1575.81 329.42l0 -1025.48 139.24 0 0 1025.48 -139.24 0zm907.25 0l0 -1025.48 393.76 0c80.12,0 144.37,10.25 192.99,31.02 48.34,20.76 86.21,52.75 113.58,95.97 27.6,42.96 41.28,88.08 41.28,135.34 0,43.68 -12.21,84.97 -36.39,123.65 -24.2,38.67 -60.84,69.95 -109.92,93.82 63.5,18.14 112.35,49.16 146.31,93.09 34.2,43.69 51.29,95.47 51.29,155.15 0,48.22 -10.5,92.86 -31.26,134.17 -20.77,41.29 -46.41,73.03 -76.96,95.47 -30.52,22.2 -68.87,39.15 -114.79,50.61 -46.18,11.47 -102.62,17.19 -169.53,17.19l-400.36 0zm139.22 -594.39l226.94 0c61.56,0 105.78,-4.05 132.39,-11.92 35.43,-10.27 62.06,-27.46 79.89,-51.32 17.82,-23.89 26.85,-53.72 26.85,-89.77 0,-34.13 -8.29,-64.21 -25.15,-89.98 -16.6,-26.02 -40.55,-43.93 -71.57,-53.47 -31.02,-9.55 -84.27,-14.33 -159.51,-14.33l-209.84 0 0 310.79zm0 474.08l261.38 0c44.96,0 76.46,-1.67 94.77,-5.01 31.76,-5.5 58.64,-14.81 80.14,-27.94 21.49,-13.12 39.07,-32.21 52.99,-57.28 13.94,-25.06 20.77,-53.95 20.77,-86.65 0,-38.44 -10.01,-71.61 -30.3,-100.03 -20.02,-28.4 -47.86,-48.22 -83.53,-59.66 -35.41,-11.46 -86.71,-17.2 -153.4,-17.2l-242.82 0 0 353.77zm1367.71 120.31l0 -1025.48 139.23 0 0 905.17 515.9 0 0 120.31 -655.13 0zm1353.29 0l0 -1025.48 757.72 0 0 120.3 -618.49 0 0 315.1 578.92 0 0 120.31 -578.92 0 0 349.46 643.41 0 0 120.31 -782.64 0zm2434.69 0l0 -1025.48 139.23 0 0 905.17 515.9 0 0 120.31 -655.13 0zm2037.74 -1025.48l139.22 0 0 592.23c0,103.12 -11.96,185 -35.65,245.63 -23.93,60.38 -66.93,109.79 -128.98,147.76 -62.29,37.94 -143.63,57.04 -244.77,57.04 -97.95,0 -178.31,-16.46 -240.59,-49.65 -62.55,-33.18 -107,-80.91 -133.62,-143.69 -26.63,-62.79 -40.05,-148.49 -40.05,-257.09l0 -592.23 139.22 0 0 591.99c0,89.04 8.55,154.91 25.4,196.92 16.86,42.26 45.69,74.97 86.95,97.65 41.05,22.9 91.38,34.36 150.74,34.36 101.61,0 174.16,-22.68 217.38,-67.79 43.24,-45.35 64.75,-132.24 64.75,-261.14l0 -591.99zm793.9 1025.48l405.49 -532.09 -357.11 -493.39 165.36 0 191.27 262.33c39.81,54.42 67.42,95.97 83.29,124.85 23.7,-35.81 51.54,-74 83.54,-114.34l209.6 -272.84 152.16 0 -364.44 487.43 392.3 538.05 -170.51 0 -264.78 -365.7c-15.16,-20.76 -29.56,-41.53 -43.24,-62.07 -23.21,34.38 -39.83,58.49 -50.33,72.1l-265.75 355.67 -166.85 0zm2300.81 -1025.48l139.23 0 0 592.23c0,103.12 -11.96,185 -35.65,245.63 -23.93,60.38 -66.93,109.79 -128.99,147.76 -62.28,37.94 -143.61,57.04 -244.76,57.04 -97.95,0 -178.31,-16.46 -240.6,-49.65 -62.52,-33.18 -106.98,-80.91 -133.61,-143.69 -26.64,-62.79 -40.06,-148.49 -40.06,-257.09l0 -592.23 139.23 0 0 591.99c0,89.04 8.55,154.91 25.39,196.92 16.86,42.26 45.7,74.97 86.97,97.65 41.04,22.9 91.36,34.36 150.72,34.36 101.62,0 174.17,-22.68 217.39,-67.79 43.25,-45.35 64.74,-132.24 64.74,-261.14l0 -591.99zm903.34 1025.48l0 -1025.48 465.1 0c93.56,0 164.63,9.3 213.25,27.67 48.61,18.39 87.44,50.86 116.52,97.41 29.06,46.55 43.48,98.11 43.48,154.44 0,72.8 -24.19,134.15 -72.32,184.04 -48.1,49.89 -122.36,81.4 -223.01,95.01 36.89,17.18 64.74,34.36 83.79,51.08 40.53,36.28 78.9,81.88 114.81,136.54l181.5 279.29 -173.45 0 -138.74 -213.41c-40.31,-61.83 -73.76,-108.84 -99.9,-141.55 -26.39,-32.71 -49.84,-55.37 -70.61,-68.51 -20.51,-12.89 -41.77,-21.97 -63.26,-27.21 -15.62,-3.1 -41.29,-4.77 -77.18,-4.77l-160.73 0 0 455.45 -139.25 0zm139.25 -572.9l297.99 0c63.52,0 112.87,-6.44 148.53,-19.33 35.65,-12.65 62.78,-33.18 81.11,-61.59 18.55,-28.16 27.84,-58.72 27.84,-91.91 0,-48.45 -17.83,-88.55 -53.75,-119.83 -35.91,-31.26 -92.57,-46.78 -170.01,-46.78l-331.71 0 0 339.44zm1715.04 572.9l0 -434.44 -404.52 -591.04 167.09 0 207.39 310.3c38.6,57.3 74.5,115.07 107.23,172.6 32,-53.72 70.83,-113.86 116.03,-180.71l203.23 -302.19 161.95 0 -419.15 591.04 0 434.44 -139.25 0z"/>
   <path class="fil2" d="M28823.53 11271.97c-65.65,0 -114.15,-11.95 -168.27,-35.21 -41,-17.61 -85.16,-48.61 -116.15,-78.99 -73.16,-71.73 -115.8,-173.43 -115.8,-277.15 0,-213.51 178.11,-388.44 397.59,-388.44 56.67,0 116.96,13.55 161.98,34.61 68.6,32.1 116.14,70.32 160.87,130.98 48.05,65.16 72.42,144.33 72.41,229.34 -0.02,136.5 -78.91,252.64 -169.1,314.47 -62.78,43.04 -141.93,70.39 -223.53,70.39zm447.82 -364.11c5.7,-91.59 -20.6,-191.45 -69.75,-264.21l-35.58 -48c-4.76,-5.16 -8.95,-9.34 -13.12,-14.33 -29.12,-34.81 -87.99,-75.72 -129.01,-96.18 -114.48,-57.09 -251.4,-63.83 -371.3,-16.44 -44.86,17.72 -103.45,51.34 -138.26,85.73 -5,4.94 -9.91,8.57 -15.11,13.71 -4.9,4.84 -8.41,9.61 -13.28,14.2 -17.94,16.91 -35.46,42.7 -49.14,63.16 -77.23,115.49 -89.26,272.18 -37.5,400.79 14.6,36.26 42.98,85.58 68,114.68l18.99 21.52c13.58,16.29 28.09,27.81 44.09,40.97 72.81,59.91 160.17,96.9 261.73,102.72 102.44,5.88 188.5,-19.5 269.87,-68.4 12.81,-7.7 52.9,-36.89 63.5,-47.79 19.12,-19.66 36.43,-35.37 53.84,-58.59 15.7,-20.94 31.5,-42.03 43.95,-68.25 26.62,-56.06 43.69,-104.72 48.08,-175.29z"/>
   <path class="fil2" d="M28740.85 10713.71c28.7,-1.3 98.02,-2.48 122.3,4.76 32.09,9.57 51.23,33.51 51.34,73.96 0.1,39.12 -21.14,63.49 -52.35,72.97 -22.96,6.98 -94.64,6.63 -121.47,4.78l0.18 -156.47zm-83.22 402.5l82.76 0.2 0.31 -179.98 92.44 -0.25 94.97 180.02 88.81 0.19c0.28,-7.28 -20.13,-41.23 -24.88,-50.09 -9.83,-18.33 -77.21,-138.75 -81.62,-149.59 17.16,-4.93 43.97,-24.73 52.37,-33.96 12.38,-13.59 24.85,-32.58 30.65,-56.75 12.61,-52.5 -3.61,-105.62 -31.13,-133.75 -11.92,-12.19 -32.47,-24.47 -54.14,-32.33 -45.6,-16.53 -112.13,-12.08 -162.43,-12.19 -28.34,-0.07 -59.64,-1.17 -87.65,0.14l-0.46 468.34z"/>
   <path class="fil3" d="M16064.7 7637.19l1435.12 958.95c-490.61,1005.57 -1523.51,1699.74 -2715.35,1699.74 -1665.08,0 -3019.34,-1354.63 -3019.34,-3019.35 0,-82.33 3.26,-163.93 9.77,-244.45l1951.26 1401.41c84.86,77.63 178.08,145.8 278.55,203.47 216.16,169.74 486.71,270.93 779.76,270.93 233.57,0 452.27,-63.82 640.86,-175.92 48.6,-28.29 95.04,-59.82 138.91,-95.01 296.2,-231.92 490.33,-593.06 500.46,-999.77z"/>
   <path class="fil2" d="M11878.2 6085.52l1609.09 1063.5c103.65,-238.23 276.93,-520.52 519.32,-844.83 177.72,-237.92 356.88,-448.99 479.11,-587.57 92.48,-105.19 152.32,-168.29 153.4,-169.71l13.08 -14.18 13.03 14.18 290.54 190.42 2706.69 1774.2c6.18,-77.6 9.08,-155.96 9.08,-234.99l0 -4917.69c0,-84.33 -41.89,-163.14 -111.79,-210.32l-1148.72 -775.39c-81.02,-54.7 -190.23,3.32 -190.23,101.09l0 3223.23c-457.35,-279.22 -994.48,-440.65 -1568.6,-440.65 -1242.35,0 -2311.39,754.12 -2774,1828.71z"/>
  </g>
 </g>
</svg>
